<svg xmlns="http://www.w3.org/2000/svg" xmlns:xlink="http://www.w3.org/1999/xlink" width="312" height="66" viewBox="0 0 312 66">
  <defs>
    <clipPath id="clip-path">
      <rect id="Rectangle_2" data-name="Rectangle 2" width="312" height="66" transform="translate(0 0)" fill="none"/>
    </clipPath>
  </defs>
  <g id="Vector_Smart_Object" data-name="Vector Smart Object" transform="translate(-120 -1081)">
    <g id="Vector_Smart_Object-2" data-name="Vector Smart Object" transform="translate(120 1081)">
      <g id="Group_2" data-name="Group 2">
        <g id="Group_1" data-name="Group 1" clip-path="url(#clip-path)">
          <path id="Path_1" data-name="Path 1" d="M228.629,26.869h-1.062V29.8h-3.914V18.15h5.59a6.837,6.837,0,0,1,2.8.532,4.129,4.129,0,0,1,1.841,1.531,4.183,4.183,0,0,1,.647,2.33,4.122,4.122,0,0,1-.564,2.18,3.982,3.982,0,0,1-1.625,1.481l2.438,3.6H230.6Zm1.559-5.333a1.74,1.74,0,0,0-1.194-.357h-1.427v2.729h1.427a1.735,1.735,0,0,0,1.194-.357,1.475,1.475,0,0,0,0-2.014" fill="#00a12f"/>
          <path id="Path_2" data-name="Path 2" d="M236.133,19.423a1.825,1.825,0,0,1,0-2.746,2.4,2.4,0,0,1,1.634-.541,2.466,2.466,0,0,1,1.641.516,1.657,1.657,0,0,1,.614,1.331,1.832,1.832,0,0,1-.614,1.423,2.344,2.344,0,0,1-1.641.558,2.4,2.4,0,0,1-1.634-.541m-.24,1.273h3.748v9.1h-3.748Z" fill="#00a12f"/>
          <path id="Path_3" data-name="Path 3" d="M242.559,29.715a6.549,6.549,0,0,1-1.824-.649l1.028-2.48a5.369,5.369,0,0,0,1.493.6,6.808,6.808,0,0,0,1.675.217,2.593,2.593,0,0,0,.9-.108.35.35,0,0,0,.257-.324c0-.144-.107-.244-.323-.3a8.643,8.643,0,0,0-1.054-.167,13.637,13.637,0,0,1-1.89-.341,2.957,2.957,0,0,1-1.369-.807,2.345,2.345,0,0,1-.588-1.714,2.539,2.539,0,0,1,.531-1.581,3.569,3.569,0,0,1,1.584-1.114,6.884,6.884,0,0,1,2.528-.417,10.564,10.564,0,0,1,2.015.192,6.115,6.115,0,0,1,1.683.557l-1.028,2.48a5.293,5.293,0,0,0-2.62-.666q-1.228,0-1.228.433c0,.145.111.247.331.308a7.661,7.661,0,0,0,1.046.174,12.649,12.649,0,0,1,1.882.35,3.037,3.037,0,0,1,1.361.815,2.345,2.345,0,0,1,.589,1.714,2.5,2.5,0,0,1-.532,1.548,3.569,3.569,0,0,1-1.592,1.114,7.057,7.057,0,0,1-2.57.417,10.541,10.541,0,0,1-2.288-.25" fill="#00a12f"/>
          <path id="Path_4" data-name="Path 4" d="M255.014,27l-.6.649V29.8h-3.748V17.45h3.748v5.891l2.6-2.645h4.428L257.7,24.639l4.045,5.159h-4.527Z" fill="#00a12f"/>
          <path id="Path_5" data-name="Path 5" d="M228.629,43.726h-1.062v2.928h-3.914V35.006h5.59a6.821,6.821,0,0,1,2.8.533,4.129,4.129,0,0,1,1.841,1.531,4.179,4.179,0,0,1,.647,2.329,4.128,4.128,0,0,1-.564,2.181,3.989,3.989,0,0,1-1.625,1.481l2.438,3.594H230.6Zm1.559-5.333a1.735,1.735,0,0,0-1.194-.357h-1.427v2.728h1.427a1.735,1.735,0,0,0,1.194-.357,1.474,1.474,0,0,0,0-2.013" fill="#00a12f"/>
          <path id="Path_6" data-name="Path 6" d="M245.494,42.978h-6.3a1.53,1.53,0,0,0,.663.79,2.248,2.248,0,0,0,1.163.275,2.907,2.907,0,0,0,1-.151,3.476,3.476,0,0,0,.887-.515l1.956,1.98a5.076,5.076,0,0,1-3.963,1.465,6.505,6.505,0,0,1-2.886-.607,4.587,4.587,0,0,1-1.924-1.69,4.714,4.714,0,0,1-.008-4.866,4.589,4.589,0,0,1,1.841-1.674,6.048,6.048,0,0,1,5.141-.049,4.31,4.31,0,0,1,1.808,1.613,4.682,4.682,0,0,1,.671,2.546q0,.084-.05.882m-5.87-2.713a1.5,1.5,0,0,0-.5.9h2.919a1.527,1.527,0,0,0-.5-.89,1.433,1.433,0,0,0-.963-.324,1.454,1.454,0,0,0-.962.315" fill="#00a12f"/>
          <path id="Path_7" data-name="Path 7" d="M261.359,38.4a4.236,4.236,0,0,1,.987,3.062v5.192H258.6V42.112q0-1.563-1.012-1.563a1.045,1.045,0,0,0-.854.4,2.01,2.01,0,0,0-.323,1.265v4.443H252.66V42.112q0-1.563-1.012-1.563a1.044,1.044,0,0,0-.854.4,2.01,2.01,0,0,0-.323,1.265v4.443h-3.748v-9.1h3.566V38.4a3.474,3.474,0,0,1,2.57-1.015,3.844,3.844,0,0,1,1.642.341,2.884,2.884,0,0,1,1.194,1.039,3.7,3.7,0,0,1,1.327-1.022,4.029,4.029,0,0,1,1.709-.358,3.5,3.5,0,0,1,2.628,1.015" fill="#00a12f"/>
          <path id="Path_8" data-name="Path 8" d="M266.217,46.214a4.659,4.659,0,0,1-1.882-1.681,4.707,4.707,0,0,1,0-4.875,4.6,4.6,0,0,1,1.882-1.673,6.472,6.472,0,0,1,5.44,0,4.641,4.641,0,0,1,1.874,6.548,4.591,4.591,0,0,1-1.874,1.681,6.384,6.384,0,0,1-5.44,0m3.773-2.795a1.947,1.947,0,0,0,.415-1.323,1.915,1.915,0,0,0-.415-1.315,1.441,1.441,0,0,0-2.122,0,1.915,1.915,0,0,0-.415,1.315,1.947,1.947,0,0,0,.415,1.323,1.425,1.425,0,0,0,2.122,0" fill="#00a12f"/>
          <path id="Path_9" data-name="Path 9" d="M285.249,37.552l-3.649,9.1h-3.88l-3.65-9.1h3.848l1.824,4.876,1.957-4.876Z" fill="#00a12f"/>
          <path id="Path_10" data-name="Path 10" d="M295.2,42.978h-6.3a1.53,1.53,0,0,0,.663.79,2.249,2.249,0,0,0,1.163.275,2.906,2.906,0,0,0,1-.151,3.476,3.476,0,0,0,.887-.515l1.956,1.98a5.076,5.076,0,0,1-3.963,1.465,6.505,6.505,0,0,1-2.886-.607,4.587,4.587,0,0,1-1.924-1.69,4.714,4.714,0,0,1-.008-4.866,4.589,4.589,0,0,1,1.841-1.674,6.047,6.047,0,0,1,5.141-.049,4.31,4.31,0,0,1,1.808,1.613,4.682,4.682,0,0,1,.671,2.546q0,.084-.05.882m-5.87-2.713a1.5,1.5,0,0,0-.5.9h2.919a1.527,1.527,0,0,0-.5-.89,1.433,1.433,0,0,0-.963-.324,1.454,1.454,0,0,0-.962.315" fill="#00a12f"/>
          <path id="Path_11" data-name="Path 11" d="M306.461,34.307V46.656h-3.567v-.749a3.156,3.156,0,0,1-2.487.916,4.343,4.343,0,0,1-2.2-.575,4.116,4.116,0,0,1-1.592-1.655,5.563,5.563,0,0,1,0-4.983,4.14,4.14,0,0,1,1.592-1.647,4.352,4.352,0,0,1,2.2-.574,3.16,3.16,0,0,1,2.306.782V34.307Zm-4.1,9.112a1.947,1.947,0,0,0,.415-1.323,1.915,1.915,0,0,0-.415-1.315,1.441,1.441,0,0,0-2.122,0,1.915,1.915,0,0,0-.415,1.315,1.947,1.947,0,0,0,.415,1.323,1.425,1.425,0,0,0,2.122,0" fill="#00a12f"/>
          <path id="Path_12" data-name="Path 12" d="M308.243,46.214a2.082,2.082,0,0,1-.622-1.556,2.028,2.028,0,0,1,.622-1.539,2.376,2.376,0,0,1,3.135,0A2.028,2.028,0,0,1,312,44.658a2.082,2.082,0,0,1-.622,1.556,2.326,2.326,0,0,1-3.135,0" fill="#00a12f"/>
          <rect id="Rectangle_1" data-name="Rectangle 1" width="1.292" height="49.944" transform="translate(207.777 13.49)" fill="#00a12f"/>
          <path id="Path_13" data-name="Path 13" d="M75.857,13.82l-4.773,8.393L65.358,13.82H53.527L64.333,29.658,53.527,46.637H65.42l4.789-8.367,5.708,8.367H87.75L76.978,30.85,87.75,13.82ZM90.42,46.638h11.772V13.821H90.42ZM17.939,1.426l8.638,20.867H9.987L.081,46.667H16.69l9.9-24.351L36.666,46.667H53.275L34.548,1.426ZM192.117,19.087a7.578,7.578,0,0,0-3.125-4.322,11.763,11.763,0,0,0-6.463-1.492,11.152,11.152,0,0,0-3.853.7,18.685,18.685,0,0,0-3.55,1.736q-1.637,1.035-2.913,2.008a8.413,8.413,0,0,0-3-3.2,9.212,9.212,0,0,0-5.006-1.248,13.465,13.465,0,0,0-5.916,1.1,23.912,23.912,0,0,0-4.155,2.618l-1.943-3.166H142.36V46.637h11.772V25.754a6.543,6.543,0,0,1,1.244-.974,6.3,6.3,0,0,1,1.546-.67,5.973,5.973,0,0,1,1.639-.244,4.573,4.573,0,0,1,1.67.274,2.307,2.307,0,0,1,1.122.944,3.664,3.664,0,0,1,.424,1.949v19.6h11.772V25.754a6.65,6.65,0,0,1,2-1.339,5.846,5.846,0,0,1,2.426-.548,4.564,4.564,0,0,1,1.669.274,2.309,2.309,0,0,1,1.123.944,3.664,3.664,0,0,1,.425,1.949v19.6h11.771v-20.7a24.071,24.071,0,0,0-.849-6.851M100.977,0H91.755Q90.3,0,90.3,1.523V8.28q0,1.4,1.457,1.4h9.222q1.337,0,1.336-1.4V1.523a1.738,1.738,0,0,0-.333-1.1,1.2,1.2,0,0,0-1-.426m33.466,16.9a10.2,10.2,0,0,0-4.794-2.771,27.452,27.452,0,0,0-7.373-.852,29.042,29.042,0,0,0-7.311.793,9.966,9.966,0,0,0-4.826,2.71,11.378,11.378,0,0,0-2.638,5.174,34.283,34.283,0,0,0-.82,8.189,32.83,32.83,0,0,0,.79,7.762,11.794,11.794,0,0,0,2.609,5.205,10.427,10.427,0,0,0,4.824,2.923,25.658,25.658,0,0,0,7.372.913,27.964,27.964,0,0,0,7.494-.851,10.059,10.059,0,0,0,4.794-2.8,11.326,11.326,0,0,0,2.548-5.175,35.539,35.539,0,0,0,.758-7.975,33.732,33.732,0,0,0-.818-8.068,11.584,11.584,0,0,0-2.609-5.175m-8.526,17.261a6.125,6.125,0,0,1-.606,2.254,1.956,1.956,0,0,1-1.154.944,8.419,8.419,0,0,1-3.762,0,1.953,1.953,0,0,1-1.154-.944,6.109,6.109,0,0,1-.605-2.254,35.789,35.789,0,0,1-.183-4.078,34.989,34.989,0,0,1,.183-4.05,6.023,6.023,0,0,1,.605-2.222,1.947,1.947,0,0,1,1.154-.945,8.458,8.458,0,0,1,3.762,0,1.95,1.95,0,0,1,1.154.945,6.04,6.04,0,0,1,.606,2.222,35.254,35.254,0,0,1,.182,4.05,36.061,36.061,0,0,1-.182,4.078" fill="#00a12f"/>
          <path id="Path_14" data-name="Path 14" d="M4.48,56.146v7.162H2.506V56.146H0V54.433H6.985v1.714Z" fill="#00a12f"/>
          <path id="Path_15" data-name="Path 15" d="M13.338,62.317a3.8,3.8,0,0,1-2.7,1.092,3.575,3.575,0,0,1-2.562-.959,3.371,3.371,0,0,1-1.013-2.571,3.322,3.322,0,0,1,1.032-2.565,3.473,3.473,0,0,1,2.436-.952,3.516,3.516,0,0,1,2.385.85,2.935,2.935,0,0,1,.981,2.337v1.015H8.934a1.359,1.359,0,0,0,.582.915,1.86,1.86,0,0,0,1.114.355,2.179,2.179,0,0,0,1.645-.673Zm-1.823-4.05a1.437,1.437,0,0,0-.956-.33,1.7,1.7,0,0,0-1.031.343,1.3,1.3,0,0,0-.544.927h2.987a1.354,1.354,0,0,0-.456-.94" fill="#00a12f"/>
          <path id="Path_16" data-name="Path 16" d="M21.514,59.625v3.682H19.6V59.574a2.237,2.237,0,0,0-.247-1.193.878.878,0,0,0-.8-.381,1.36,1.36,0,0,0-.975.413,1.618,1.618,0,0,0-.424,1.213v3.682h-1.9V56.476h1.9v.775a2.348,2.348,0,0,1,1.8-.888,1.947,1.947,0,0,1,1.171.38,2.468,2.468,0,0,1,.79.927,2.683,2.683,0,0,1,1.058-.965,2.878,2.878,0,0,1,1.335-.342,2.649,2.649,0,0,1,1.936.718,2.771,2.771,0,0,1,.734,2.075v4.152H24.07V59.574Q24.07,58,22.918,58a1.363,1.363,0,0,0-.988.413,1.635,1.635,0,0,0-.417,1.213" fill="#00a12f"/>
          <path id="Path_17" data-name="Path 17" d="M31.662,56.362a2.831,2.831,0,0,1,2.12,1,3.531,3.531,0,0,1,.93,2.507,3.6,3.6,0,0,1-.93,2.528,2.868,2.868,0,0,1-2.177,1.015,2.4,2.4,0,0,1-2.006-1v3.365H27.7v-9.3h1.9v.762a2.82,2.82,0,0,1,2.063-.875M29.574,59.9a1.981,1.981,0,0,0,.462,1.358,1.432,1.432,0,0,0,1.12.527,1.528,1.528,0,0,0,1.152-.527A1.9,1.9,0,0,0,32.8,59.9a2.047,2.047,0,0,0-.48-1.383,1.472,1.472,0,0,0-1.152-.559,1.424,1.424,0,0,0-1.133.552,2.085,2.085,0,0,0-.462,1.384" fill="#00a12f"/>
          <path id="Path_18" data-name="Path 18" d="M42.937,59.892a3.385,3.385,0,0,1-1.026,2.5,3.775,3.775,0,0,1-5.151,0,3.575,3.575,0,0,1,0-5.011,3.759,3.759,0,0,1,5.151,0,3.407,3.407,0,0,1,1.026,2.509m-5.29,0a1.956,1.956,0,0,0,.475,1.364,1.663,1.663,0,0,0,2.429,0,1.96,1.96,0,0,0,.474-1.364,1.984,1.984,0,0,0-.474-1.371,1.65,1.65,0,0,0-2.429,0,1.98,1.98,0,0,0-.475,1.371" fill="#00a12f"/>
          <path id="Path_19" data-name="Path 19" d="M47.923,58.152a1.438,1.438,0,0,0-1.266.6,2.751,2.751,0,0,0-.417,1.593v2.959h-1.9V56.476h1.9v.9a3.181,3.181,0,0,1,.917-.711,2.469,2.469,0,0,1,1.12-.305l.013,1.79Z" fill="#00a12f"/>
          <path id="Path_20" data-name="Path 20" d="M55.136,63.309H53.352v-.825a2.235,2.235,0,0,1-1.816.927,2.691,2.691,0,0,1-1.816-.628,2.1,2.1,0,0,1-.733-1.677,1.772,1.772,0,0,1,.759-1.567,3.617,3.617,0,0,1,2.075-.521h1.417v-.038q0-1.092-1.152-1.091a3.12,3.12,0,0,0-1.044.2,3.363,3.363,0,0,0-.931.49l-.847-1.232a5.06,5.06,0,0,1,3.063-.978,3.158,3.158,0,0,1,2.024.621,2.36,2.36,0,0,1,.784,1.969Zm-1.91-2.6v-.33h-1.19q-1.139,0-1.139.711a.652.652,0,0,0,.272.565,1.309,1.309,0,0,0,.777.2,1.385,1.385,0,0,0,.892-.311,1.016,1.016,0,0,0,.386-.832" fill="#00a12f"/>
          <path id="Path_21" data-name="Path 21" d="M60.451,58.152a1.438,1.438,0,0,0-1.266.6,2.751,2.751,0,0,0-.417,1.593v2.959h-1.9V56.476h1.9v.9a3.181,3.181,0,0,1,.917-.711,2.469,2.469,0,0,1,1.12-.305l.013,1.79Z" fill="#00a12f"/>
          <path id="Path_22" data-name="Path 22" d="M63.526,66a2.759,2.759,0,0,1-1.886-.812l.861-1.411a1.415,1.415,0,0,0,.987.471.554.554,0,0,0,.455-.26.923.923,0,0,0,.19-.553q0-.292-2.632-6.958h2.025l1.658,4.255,1.658-4.255h2.024L65.7,64.527a2.271,2.271,0,0,1-.867,1.085,2.334,2.334,0,0,1-1.31.388" fill="#00a12f"/>
          <path id="Path_23" data-name="Path 23" d="M75.416,56.2a.765.765,0,0,0-.285.621.7.7,0,0,0,.348.616,6.319,6.319,0,0,0,1.607.539,4.519,4.519,0,0,1,1.955.934,2.308,2.308,0,0,1,.7,1.816,2.4,2.4,0,0,1-.892,1.937,3.553,3.553,0,0,1-2.347.742,5.425,5.425,0,0,1-3.784-1.561L73.891,60.4a4.182,4.182,0,0,0,2.644,1.258,1.386,1.386,0,0,0,.854-.235.753.753,0,0,0,.31-.634.741.741,0,0,0-.329-.635,4.282,4.282,0,0,0-1.3-.476,5.67,5.67,0,0,1-2.259-.959,2.269,2.269,0,0,1-.714-1.854,2.3,2.3,0,0,1,.9-1.95,3.641,3.641,0,0,1,2.259-.686,5.433,5.433,0,0,1,1.772.305,4.762,4.762,0,0,1,1.544.864l-1,1.447a3.89,3.89,0,0,0-2.378-.875,1.182,1.182,0,0,0-.778.235" fill="#00a12f"/>
          <path id="Path_24" data-name="Path 24" d="M85.621,60.159V56.477h1.911v6.832H85.621v-.9a2.152,2.152,0,0,1-1.829,1,2.658,2.658,0,0,1-1.879-.7,2.711,2.711,0,0,1-.759-2.088v-4.14h1.911V60.2q0,1.574,1.152,1.573a1.357,1.357,0,0,0,.988-.413,1.614,1.614,0,0,0,.417-1.2" fill="#00a12f"/>
          <path id="Path_25" data-name="Path 25" d="M92.91,58.152a1.438,1.438,0,0,0-1.266.6,2.751,2.751,0,0,0-.417,1.593v2.959h-1.9V56.476h1.9v.9a3.181,3.181,0,0,1,.918-.711,2.469,2.469,0,0,1,1.12-.305l.013,1.79Z" fill="#00a12f"/>
          <path id="Path_26" data-name="Path 26" d="M96.8,56.083v.457H98.44v1.371H96.8v5.4h-1.91v-5.4h-.8V56.54h.8v-.419A2.282,2.282,0,0,1,97.245,53.7a2.632,2.632,0,0,1,1.829.763l-.683,1.283a1.213,1.213,0,0,0-.924-.484.619.619,0,0,0-.481.211.888.888,0,0,0-.19.615" fill="#00a12f"/>
          <path id="Path_27" data-name="Path 27" d="M105.1,63.309h-1.785v-.825a2.235,2.235,0,0,1-1.816.927,2.691,2.691,0,0,1-1.816-.628,2.1,2.1,0,0,1-.733-1.677,1.772,1.772,0,0,1,.759-1.567,3.617,3.617,0,0,1,2.075-.521H103.2v-.038q0-1.092-1.152-1.091a3.121,3.121,0,0,0-1.044.2,3.363,3.363,0,0,0-.931.49l-.847-1.232a5.06,5.06,0,0,1,3.063-.978,3.158,3.158,0,0,1,2.024.621,2.36,2.36,0,0,1,.785,1.969Zm-1.911-2.6v-.33H102q-1.139,0-1.139.711a.652.652,0,0,0,.272.565,1.309,1.309,0,0,0,.777.2,1.385,1.385,0,0,0,.892-.311,1.016,1.016,0,0,0,.386-.832" fill="#00a12f"/>
          <path id="Path_28" data-name="Path 28" d="M110.1,61.72a2.173,2.173,0,0,0,1.708-.952l1.127,1.27a3.912,3.912,0,0,1-2.847,1.371,3.684,3.684,0,0,1-2.588-.972,3.581,3.581,0,0,1,.012-5.092,3.626,3.626,0,0,1,2.537-.984,3.933,3.933,0,0,1,1.488.305,3.742,3.742,0,0,1,1.322.9l-.987,1.3a2.339,2.339,0,0,0-1.747-.825,1.845,1.845,0,0,0-1.284.488,1.743,1.743,0,0,0-.538,1.358,1.722,1.722,0,0,0,.538,1.353,1.826,1.826,0,0,0,1.259.482" fill="#00a12f"/>
          <path id="Path_29" data-name="Path 29" d="M119.9,62.317a3.8,3.8,0,0,1-2.7,1.092,3.575,3.575,0,0,1-2.562-.959,3.371,3.371,0,0,1-1.013-2.571,3.325,3.325,0,0,1,1.032-2.565,3.476,3.476,0,0,1,2.437-.952,3.516,3.516,0,0,1,2.384.85,2.936,2.936,0,0,1,.982,2.337v1.015H115.5a1.352,1.352,0,0,0,.582.915,1.856,1.856,0,0,0,1.114.355,2.177,2.177,0,0,0,1.644-.673Zm-1.823-4.05a1.437,1.437,0,0,0-.956-.33,1.7,1.7,0,0,0-1.031.343,1.3,1.3,0,0,0-.545.927h2.987a1.357,1.357,0,0,0-.455-.94" fill="#00a12f"/>
          <path id="Path_30" data-name="Path 30" d="M131.45,55.227a3.027,3.027,0,0,1,.931,2.438,2.893,2.893,0,0,1-.956,2.405,4.637,4.637,0,0,1-2.918.763h-1.176v2.475h-1.975V54.432h3.126a4.523,4.523,0,0,1,2.968.8M130,58.718a1.708,1.708,0,0,0,.354-1.168,1.241,1.241,0,0,0-.461-1.092,2.534,2.534,0,0,0-1.437-.324h-1.126v2.985h1.328a1.756,1.756,0,0,0,1.342-.4" fill="#00a12f"/>
          <path id="Path_31" data-name="Path 31" d="M137.315,58.152a1.438,1.438,0,0,0-1.266.6,2.751,2.751,0,0,0-.417,1.593v2.959h-1.9V56.476h1.9v.9a3.181,3.181,0,0,1,.917-.711,2.469,2.469,0,0,1,1.12-.305l.013,1.79Z" fill="#00a12f"/>
          <path id="Path_32" data-name="Path 32" d="M145.744,59.892a3.385,3.385,0,0,1-1.026,2.5,3.775,3.775,0,0,1-5.151,0,3.575,3.575,0,0,1,0-5.011,3.759,3.759,0,0,1,5.151,0,3.407,3.407,0,0,1,1.026,2.509m-5.29,0a1.956,1.956,0,0,0,.475,1.364,1.663,1.663,0,0,0,2.429,0,1.96,1.96,0,0,0,.474-1.364,1.984,1.984,0,0,0-.474-1.371,1.65,1.65,0,0,0-2.429,0,1.98,1.98,0,0,0-.475,1.371" fill="#00a12f"/>
          <path id="Path_33" data-name="Path 33" d="M149.413,57.847v3.061a.881.881,0,0,0,.2.615.627.627,0,0,0,.48.222,1.093,1.093,0,0,0,.9-.482L151.7,62.6a2.742,2.742,0,0,1-1.867.812A2.269,2.269,0,0,1,147.5,61V57.847h-.8V56.476h.8V54.432h1.91v2.044h1.645v1.371Z" fill="#00a12f"/>
          <path id="Path_34" data-name="Path 34" d="M158.588,62.317a3.8,3.8,0,0,1-2.7,1.092,3.575,3.575,0,0,1-2.562-.959,3.371,3.371,0,0,1-1.013-2.571,3.322,3.322,0,0,1,1.032-2.565,3.473,3.473,0,0,1,2.436-.952,3.516,3.516,0,0,1,2.385.85,2.935,2.935,0,0,1,.981,2.337v1.015h-4.961a1.359,1.359,0,0,0,.582.915,1.86,1.86,0,0,0,1.114.355,2.179,2.179,0,0,0,1.645-.673Zm-1.823-4.05a1.437,1.437,0,0,0-.956-.33,1.7,1.7,0,0,0-1.031.343,1.3,1.3,0,0,0-.544.927h2.987a1.354,1.354,0,0,0-.456-.94" fill="#00a12f"/>
          <path id="Path_35" data-name="Path 35" d="M163.776,61.72a2.173,2.173,0,0,0,1.708-.952l1.127,1.27a3.912,3.912,0,0,1-2.847,1.371,3.684,3.684,0,0,1-2.588-.972,3.581,3.581,0,0,1,.012-5.092,3.626,3.626,0,0,1,2.537-.984,3.933,3.933,0,0,1,1.488.305,3.742,3.742,0,0,1,1.322.9l-.987,1.3a2.339,2.339,0,0,0-1.747-.825,1.845,1.845,0,0,0-1.284.488,1.743,1.743,0,0,0-.538,1.358,1.722,1.722,0,0,0,.538,1.353,1.826,1.826,0,0,0,1.259.482" fill="#00a12f"/>
          <path id="Path_36" data-name="Path 36" d="M170.141,57.847v3.061a.881.881,0,0,0,.2.615.627.627,0,0,0,.48.222,1.093,1.093,0,0,0,.9-.482l.709,1.333a2.742,2.742,0,0,1-1.867.812A2.269,2.269,0,0,1,168.231,61V57.847h-.8V56.476h.8V54.432h1.91v2.044h1.645v1.371Z" fill="#00a12f"/>
          <path id="Path_37" data-name="Path 37" d="M173.6,55.608a1.127,1.127,0,1,1,.79.324,1.082,1.082,0,0,1-.79-.324m1.74,7.7h-1.9V56.477h1.9Z" fill="#00a12f"/>
          <path id="Path_38" data-name="Path 38" d="M183.948,59.892a3.384,3.384,0,0,1-1.025,2.5,3.775,3.775,0,0,1-5.151,0,3.573,3.573,0,0,1,0-5.011,3.759,3.759,0,0,1,5.151,0,3.406,3.406,0,0,1,1.025,2.509m-5.29,0a1.956,1.956,0,0,0,.475,1.364,1.663,1.663,0,0,0,2.429,0,1.965,1.965,0,0,0,.474-1.364,1.988,1.988,0,0,0-.474-1.371,1.65,1.65,0,0,0-2.429,0,1.979,1.979,0,0,0-.475,1.371" fill="#00a12f"/>
          <path id="Path_39" data-name="Path 39" d="M187.25,59.5v3.809h-1.9V56.476h1.9v.763a2.652,2.652,0,0,1,1.936-.876,2.4,2.4,0,0,1,1.8.761,2.827,2.827,0,0,1,.726,2.033v4.151h-1.9v-3.86q0-1.574-1.151-1.574a1.376,1.376,0,0,0-.994.413,1.616,1.616,0,0,0-.424,1.213" fill="#00a12f"/>
        </g>
      </g>
    </g>
    <path id="Color_Overlay" data-name="Color Overlay" d="M183.461,1147a2.782,2.782,0,0,1-1.821-.812l.861-1.41a1.417,1.417,0,0,0,.987.471.553.553,0,0,0,.454-.26.919.919,0,0,0,.191-.553q0-.293-2.632-6.959h2.025l1.658,4.255,1.658-4.255h2.024l-3.163,8.051a2.271,2.271,0,0,1-.868,1.085,2.327,2.327,0,0,1-1.244.387Zm-35.76-.229v-9.3h1.9v.762a2.807,2.807,0,0,1,4.183.121,3.53,3.53,0,0,1,.93,2.506,3.6,3.6,0,0,1-.93,2.528,2.867,2.867,0,0,1-2.177,1.015,2.4,2.4,0,0,1-2.006-1v3.365Zm2.335-7.258a2.085,2.085,0,0,0-.463,1.385,1.977,1.977,0,0,0,.463,1.358,1.434,1.434,0,0,0,1.12.527,1.529,1.529,0,0,0,1.151-.527,1.894,1.894,0,0,0,.493-1.353,2.051,2.051,0,0,0-.48-1.383,1.473,1.473,0,0,0-1.152-.559A1.423,1.423,0,0,0,150.036,1139.513Zm177.74,4.92v-49.945h1.292v49.945Zm-46.6-1a3.582,3.582,0,0,1,.012-5.092,3.627,3.627,0,0,1,2.537-.984,3.939,3.939,0,0,1,1.488.305,3.736,3.736,0,0,1,1.322.9l-.986,1.3a2.342,2.342,0,0,0-1.747-.825,1.847,1.847,0,0,0-1.284.488,1.743,1.743,0,0,0-.538,1.358,1.723,1.723,0,0,0,.538,1.354,1.826,1.826,0,0,0,1.259.481,2.173,2.173,0,0,0,1.708-.951l1.126,1.27a3.909,3.909,0,0,1-2.846,1.372A3.685,3.685,0,0,1,281.175,1143.438Zm-53.68,0a3.582,3.582,0,0,1,.012-5.092,3.63,3.63,0,0,1,2.538-.984,3.939,3.939,0,0,1,1.488.305,3.733,3.733,0,0,1,1.321.9l-.986,1.3a2.338,2.338,0,0,0-1.747-.825,1.846,1.846,0,0,0-1.283.488,1.743,1.743,0,0,0-.538,1.358,1.723,1.723,0,0,0,.538,1.354,1.826,1.826,0,0,0,1.258.481,2.172,2.172,0,0,0,1.708-.951l1.127,1.27a3.912,3.912,0,0,1-2.847,1.372A3.686,3.686,0,0,1,227.495,1143.438Zm-7.815.343a2.094,2.094,0,0,1-.733-1.677,1.773,1.773,0,0,1,.759-1.567,3.619,3.619,0,0,1,2.075-.521H223.2v-.038q0-1.092-1.151-1.092a3.123,3.123,0,0,0-1.044.2,3.381,3.381,0,0,0-.931.49l-.847-1.231a5.059,5.059,0,0,1,3.063-.978,3.158,3.158,0,0,1,2.024.622,2.36,2.36,0,0,1,.785,1.968v4.355h-1.785v-.825a2.236,2.236,0,0,1-1.816.927A2.687,2.687,0,0,1,219.68,1143.781Zm1.177-1.7a.652.652,0,0,0,.272.565,1.313,1.313,0,0,0,.778.2,1.385,1.385,0,0,0,.893-.311,1.015,1.015,0,0,0,.386-.832v-.33H222Q220.856,1141.375,220.857,1142.086Zm-18.944,1.62a2.712,2.712,0,0,1-.76-2.089v-4.14h1.911v3.722q0,1.574,1.152,1.573a1.36,1.36,0,0,0,.987-.412,1.615,1.615,0,0,0,.418-1.2v-3.683h1.911v6.832h-1.911v-.9a2.152,2.152,0,0,1-1.829,1A2.657,2.657,0,0,1,201.913,1143.706Zm-32.194.076a2.1,2.1,0,0,1-.733-1.677,1.773,1.773,0,0,1,.76-1.567,3.619,3.619,0,0,1,2.075-.521h1.417v-.038q0-1.092-1.151-1.092a3.123,3.123,0,0,0-1.044.2,3.368,3.368,0,0,0-.931.49l-.847-1.231a5.057,5.057,0,0,1,3.062-.978,3.155,3.155,0,0,1,2.024.622,2.357,2.357,0,0,1,.785,1.968v4.355h-1.784v-.825a2.236,2.236,0,0,1-1.816.927A2.691,2.691,0,0,1,169.719,1143.781Zm1.178-1.7a.652.652,0,0,0,.272.565,1.309,1.309,0,0,0,.778.2,1.385,1.385,0,0,0,.893-.311,1.017,1.017,0,0,0,.386-.832v-.33h-1.19Q170.9,1141.375,170.9,1142.086Zm126.875,1.309a3.572,3.572,0,0,1,0-5.011,3.759,3.759,0,0,1,5.151,0,3.577,3.577,0,0,1,0,5.011,3.774,3.774,0,0,1-5.151,0Zm1.361-3.874a1.979,1.979,0,0,0-.475,1.372,1.954,1.954,0,0,0,.475,1.364,1.662,1.662,0,0,0,2.429,0,1.966,1.966,0,0,0,.474-1.364,1.991,1.991,0,0,0-.474-1.372,1.651,1.651,0,0,0-2.429,0Zm-10.226,4.241a2.327,2.327,0,0,1-.677-1.765v-3.149h-.8v-1.372h.8v-2.044h1.911v2.044h1.644v1.372h-1.644v3.061a.881.881,0,0,0,.2.616.627.627,0,0,0,.481.221,1.091,1.091,0,0,0,.9-.482l.71,1.333a2.744,2.744,0,0,1-1.867.813A2.306,2.306,0,0,1,288.907,1143.761Zm-15.584-.311a3.372,3.372,0,0,1-1.013-2.571,3.322,3.322,0,0,1,1.031-2.565,3.474,3.474,0,0,1,2.436-.951,3.516,3.516,0,0,1,2.385.85,2.935,2.935,0,0,1,.981,2.337v1.014h-4.961a1.362,1.362,0,0,0,.582.915,1.861,1.861,0,0,0,1.113.355,2.178,2.178,0,0,0,1.645-.672l1.064,1.155a3.8,3.8,0,0,1-2.7,1.093A3.574,3.574,0,0,1,273.323,1143.45Zm1.455-4.17a1.3,1.3,0,0,0-.544.926h2.986a1.355,1.355,0,0,0-.456-.94,1.438,1.438,0,0,0-.955-.33A1.7,1.7,0,0,0,274.778,1139.28Zm-6.6,4.481A2.324,2.324,0,0,1,267.5,1142v-3.149h-.8v-1.372h.8v-2.044h1.91v2.044h1.645v1.372h-1.645v3.061a.882.882,0,0,0,.2.616.627.627,0,0,0,.481.221,1.092,1.092,0,0,0,.9-.482l.709,1.333a2.742,2.742,0,0,1-1.867.813A2.306,2.306,0,0,1,268.179,1143.761Zm-8.612-.367a3.577,3.577,0,0,1,0-5.011,3.759,3.759,0,0,1,5.151,0,3.572,3.572,0,0,1,0,5.011,3.774,3.774,0,0,1-5.151,0Zm1.362-3.874a1.983,1.983,0,0,0-.475,1.372,1.958,1.958,0,0,0,.475,1.364,1.662,1.662,0,0,0,2.429,0,1.957,1.957,0,0,0,.474-1.364,1.982,1.982,0,0,0-.474-1.372,1.651,1.651,0,0,0-2.429,0Zm-26.291,3.929a3.368,3.368,0,0,1-1.012-2.571,3.325,3.325,0,0,1,1.031-2.565,3.475,3.475,0,0,1,2.437-.951,3.517,3.517,0,0,1,2.384.85,2.936,2.936,0,0,1,.982,2.337v1.014H235.5a1.353,1.353,0,0,0,.582.915,1.855,1.855,0,0,0,1.113.355,2.176,2.176,0,0,0,1.644-.672l1.065,1.155a3.8,3.8,0,0,1-2.7,1.093A3.572,3.572,0,0,1,234.638,1143.45Zm1.456-4.17a1.3,1.3,0,0,0-.545.926h2.987a1.358,1.358,0,0,0-.455-.94,1.439,1.439,0,0,0-.956-.33A1.7,1.7,0,0,0,236.094,1139.28Zm-43.381,3.568,1.177-1.449a4.181,4.181,0,0,0,2.644,1.258,1.386,1.386,0,0,0,.855-.235.752.752,0,0,0,.31-.635.741.741,0,0,0-.328-.635,4.3,4.3,0,0,0-1.3-.476,5.667,5.667,0,0,1-2.259-.958,2.27,2.27,0,0,1-.715-1.854,2.3,2.3,0,0,1,.9-1.95,3.641,3.641,0,0,1,2.259-.686,5.42,5.42,0,0,1,1.772.306,4.755,4.755,0,0,1,1.544.864l-1,1.446a3.89,3.89,0,0,0-2.379-.875,1.186,1.186,0,0,0-.779.235.765.765,0,0,0-.284.621.7.7,0,0,0,.347.616,6.313,6.313,0,0,0,1.607.539,4.516,4.516,0,0,1,1.955.934,2.306,2.306,0,0,1,.7,1.815,2.4,2.4,0,0,1-.893,1.937,3.551,3.551,0,0,1-2.347.743A5.423,5.423,0,0,1,192.713,1142.848Zm-35.953.546a3.577,3.577,0,0,1,0-5.011,3.761,3.761,0,0,1,5.152,0,3.575,3.575,0,0,1,0,5.011,3.775,3.775,0,0,1-5.152,0Zm1.362-3.874a1.983,1.983,0,0,0-.475,1.372,1.958,1.958,0,0,0,.475,1.364,1.663,1.663,0,0,0,2.43,0,1.962,1.962,0,0,0,.474-1.364,1.987,1.987,0,0,0-.474-1.372,1.652,1.652,0,0,0-2.43,0Zm-30.049,3.929a3.372,3.372,0,0,1-1.013-2.571,3.322,3.322,0,0,1,1.032-2.565,3.471,3.471,0,0,1,2.436-.951,3.517,3.517,0,0,1,2.385.85,2.934,2.934,0,0,1,.98,2.337v1.014h-4.961a1.364,1.364,0,0,0,.583.915,1.859,1.859,0,0,0,1.113.355,2.177,2.177,0,0,0,1.644-.672l1.064,1.155a3.8,3.8,0,0,1-2.7,1.093A3.576,3.576,0,0,1,128.073,1143.45Zm1.456-4.17a1.3,1.3,0,0,0-.544.926h2.987a1.355,1.355,0,0,0-.456-.94,1.44,1.44,0,0,0-.956-.33A1.7,1.7,0,0,0,129.529,1139.28Zm163.915,5.028v-6.832h1.9v6.832Zm-170.939,0v-7.162H120v-1.714h6.986v1.714H124.48v7.162Zm187.313,0v-3.86q0-1.574-1.151-1.574a1.379,1.379,0,0,0-.994.412,1.619,1.619,0,0,0-.424,1.213v3.809h-1.9v-6.832h1.9v.763a2.652,2.652,0,0,1,1.936-.877,2.4,2.4,0,0,1,1.8.761,2.826,2.826,0,0,1,.726,2.032v4.152Zm-56.084,0v-6.832h1.9v.9a3.174,3.174,0,0,1,.917-.711,2.476,2.476,0,0,1,1.12-.305l.014,1.79h-.367a1.439,1.439,0,0,0-1.266.6,2.755,2.755,0,0,0-.417,1.594v2.958Zm-8.378,0v-8.876h3.126a4.524,4.524,0,0,1,2.968.795,3.029,3.029,0,0,1,.931,2.438,2.892,2.892,0,0,1-.956,2.4,4.635,4.635,0,0,1-2.918.763h-1.175v2.475Zm1.976-4.189h1.327a1.755,1.755,0,0,0,1.342-.4,1.711,1.711,0,0,0,.355-1.167,1.242,1.242,0,0,0-.462-1.093,2.531,2.531,0,0,0-1.436-.324h-1.126Zm-32.447,4.189v-5.4h-.8v-1.372h.8v-.418a2.283,2.283,0,0,1,2.36-2.426,2.631,2.631,0,0,1,1.829.763l-.683,1.283a1.213,1.213,0,0,0-.924-.484.619.619,0,0,0-.481.211.889.889,0,0,0-.191.616v.456h1.645v1.372h-1.645v5.4Zm-5.556,0v-6.832h1.9v.9a3.174,3.174,0,0,1,.917-.711,2.476,2.476,0,0,1,1.12-.305l.014,1.79h-.367a1.44,1.44,0,0,0-1.266.6,2.755,2.755,0,0,0-.417,1.594v2.958Zm-32.459,0v-6.832h1.9v.9a3.174,3.174,0,0,1,.917-.711,2.476,2.476,0,0,1,1.12-.305l.013,1.79h-.367a1.438,1.438,0,0,0-1.265.6,2.755,2.755,0,0,0-.417,1.594v2.958Zm-12.528,0v-6.832h1.9v.9a3.174,3.174,0,0,1,.917-.711,2.476,2.476,0,0,1,1.12-.305l.013,1.79h-.367a1.44,1.44,0,0,0-1.266.6,2.755,2.755,0,0,0-.417,1.594v2.958Zm-20.272,0v-3.734q0-1.573-1.151-1.574a1.36,1.36,0,0,0-.987.413,1.635,1.635,0,0,0-.418,1.212v3.683H139.6v-3.734a2.232,2.232,0,0,0-.247-1.193.878.878,0,0,0-.8-.382,1.361,1.361,0,0,0-.975.413,1.62,1.62,0,0,0-.424,1.212v3.683h-1.9v-6.832h1.9v.775a2.347,2.347,0,0,1,1.8-.888,1.946,1.946,0,0,1,1.17.381,2.475,2.475,0,0,1,.791.926,2.688,2.688,0,0,1,1.058-.965,2.88,2.88,0,0,1,1.335-.342,2.646,2.646,0,0,1,1.936.718,2.772,2.772,0,0,1,.734,2.074v4.153Zm149.532-7.7a1.128,1.128,0,1,1,.79.324A1.081,1.081,0,0,1,293.6,1136.607Zm-58.7-9.579a10.428,10.428,0,0,1-4.823-2.923,11.8,11.8,0,0,1-2.61-5.206,32.861,32.861,0,0,1-.79-7.762,34.273,34.273,0,0,1,.821-8.189,11.385,11.385,0,0,1,2.638-5.175,9.964,9.964,0,0,1,4.826-2.709,29.035,29.035,0,0,1,7.311-.793,27.425,27.425,0,0,1,7.374.852,10.2,10.2,0,0,1,4.793,2.77,11.585,11.585,0,0,1,2.609,5.176,33.717,33.717,0,0,1,.819,8.068,35.561,35.561,0,0,1-.759,7.975,11.322,11.322,0,0,1-2.549,5.175,10.049,10.049,0,0,1-4.793,2.8,27.933,27.933,0,0,1-7.494.851A25.659,25.659,0,0,1,234.9,1127.029Zm5.491-23.167a1.943,1.943,0,0,0-1.153.944,6.024,6.024,0,0,0-.606,2.222,34.916,34.916,0,0,0-.183,4.05,35.73,35.73,0,0,0,.183,4.078,6.111,6.111,0,0,0,.606,2.254,1.948,1.948,0,0,0,1.153.943,8.4,8.4,0,0,0,3.762,0,1.95,1.95,0,0,0,1.154-.943,6.126,6.126,0,0,0,.607-2.254,35.975,35.975,0,0,0,.182-4.078,35.156,35.156,0,0,0-.182-4.05,6.04,6.04,0,0,0-.607-2.222,1.945,1.945,0,0,0-1.154-.944,8.435,8.435,0,0,0-3.762,0Zm177.815,23.385a4.111,4.111,0,0,1-1.592-1.655,5.56,5.56,0,0,1,0-4.983,4.137,4.137,0,0,1,1.592-1.648,4.352,4.352,0,0,1,2.2-.574,3.161,3.161,0,0,1,2.307.782v-3.861h3.748v12.348h-3.567v-.749a3.155,3.155,0,0,1-2.488.916A4.335,4.335,0,0,1,418.209,1127.246Zm2.032-5.466a1.914,1.914,0,0,0-.416,1.315,1.946,1.946,0,0,0,.416,1.323,1.424,1.424,0,0,0,2.122,0,1.945,1.945,0,0,0,.415-1.323,1.914,1.914,0,0,0-.415-1.315,1.441,1.441,0,0,0-2.122,0Zm-12.522,5.434a4.586,4.586,0,0,1-1.924-1.69,4.713,4.713,0,0,1-.008-4.865,4.582,4.582,0,0,1,1.841-1.674,6.043,6.043,0,0,1,5.141-.049,4.308,4.308,0,0,1,1.807,1.613,4.681,4.681,0,0,1,.671,2.546c0,.056-.017.35-.049.882h-6.3a1.532,1.532,0,0,0,.663.79,2.251,2.251,0,0,0,1.163.275,2.921,2.921,0,0,0,1-.15,3.507,3.507,0,0,0,.887-.516l1.956,1.98a5.073,5.073,0,0,1-3.963,1.465A6.511,6.511,0,0,1,407.72,1127.215Zm1.608-5.95a1.5,1.5,0,0,0-.5.9h2.919a1.524,1.524,0,0,0-.5-.89,1.431,1.431,0,0,0-.962-.325A1.457,1.457,0,0,0,409.328,1121.265Zm-23.111,5.949a4.651,4.651,0,0,1-1.882-1.681,4.705,4.705,0,0,1,0-4.874,4.589,4.589,0,0,1,1.882-1.673,6.471,6.471,0,0,1,5.44,0,4.641,4.641,0,0,1,1.875,6.547,4.591,4.591,0,0,1-1.875,1.681,6.383,6.383,0,0,1-5.44,0Zm1.651-5.433a1.914,1.914,0,0,0-.415,1.315,1.945,1.945,0,0,0,.415,1.323,1.424,1.424,0,0,0,2.122,0,1.945,1.945,0,0,0,.415-1.323,1.914,1.914,0,0,0-.415-1.315,1.441,1.441,0,0,0-2.122,0Zm-29.853,5.434a4.591,4.591,0,0,1-1.924-1.69,4.713,4.713,0,0,1-.008-4.865,4.588,4.588,0,0,1,1.841-1.674,6.043,6.043,0,0,1,5.141-.049,4.31,4.31,0,0,1,1.808,1.613,4.681,4.681,0,0,1,.671,2.546q0,.084-.05.882h-6.3a1.532,1.532,0,0,0,.663.79,2.251,2.251,0,0,0,1.163.275,2.917,2.917,0,0,0,1-.15,3.507,3.507,0,0,0,.887-.516l1.957,1.98a5.076,5.076,0,0,1-3.964,1.465A6.514,6.514,0,0,1,358.015,1127.215Zm1.609-5.95a1.5,1.5,0,0,0-.5.9h2.919a1.524,1.524,0,0,0-.5-.89,1.431,1.431,0,0,0-.962-.325A1.454,1.454,0,0,0,359.624,1121.265Zm68.619,5.949a2.084,2.084,0,0,1-.622-1.556,2.028,2.028,0,0,1,.622-1.539,2.376,2.376,0,0,1,3.135,0,2.029,2.029,0,0,1,.623,1.539,2.085,2.085,0,0,1-.623,1.556,2.325,2.325,0,0,1-3.135,0Zm-271.577.453-10.08-24.351-9.9,24.351H120.081l9.906-24.375h16.589l-8.637-20.866h16.609l18.727,45.241Zm241.054-.012-3.65-9.1h3.848l1.824,4.876,1.957-4.876h3.55l-3.649,9.1Zm-19.123,0v-4.543q0-1.563-1.012-1.563a1.044,1.044,0,0,0-.854.4,2.009,2.009,0,0,0-.323,1.264v4.443h-3.748v-4.543q0-1.563-1.012-1.563a1.043,1.043,0,0,0-.854.4,2.009,2.009,0,0,0-.323,1.264v4.443h-3.749v-9.1h3.566v.85a3.475,3.475,0,0,1,2.57-1.015,3.837,3.837,0,0,1,1.643.342,2.882,2.882,0,0,1,1.193,1.039,3.692,3.692,0,0,1,1.327-1.021,4.026,4.026,0,0,1,1.709-.359,3.5,3.5,0,0,1,2.628,1.015,4.234,4.234,0,0,1,.987,3.062v5.192Zm-28,0-1.973-2.928h-1.061v2.928h-3.915v-11.649h5.591a6.813,6.813,0,0,1,2.8.534,4.127,4.127,0,0,1,1.841,1.531,4.18,4.18,0,0,1,.647,2.329,4.129,4.129,0,0,1-.564,2.181,3.99,3.99,0,0,1-1.624,1.48l2.438,3.594Zm-3.034-5.891h1.426a1.737,1.737,0,0,0,1.193-.357,1.475,1.475,0,0,0,0-2.013,1.737,1.737,0,0,0-1.193-.357h-1.426Zm-137.147,5.874v-32.817h11.772v32.817Zm90.775,0v-19.6a7.086,7.086,0,0,0-.426-1.948,2.306,2.306,0,0,0-1.122-.943,4.562,4.562,0,0,0-1.669-.275,5.845,5.845,0,0,0-2.426.548,6.661,6.661,0,0,0-2,1.339v20.884H281.777v-19.6a3.662,3.662,0,0,0-.425-1.948,2.3,2.3,0,0,0-1.121-.943,4.571,4.571,0,0,0-1.669-.275,5.994,5.994,0,0,0-1.639.244,6.342,6.342,0,0,0-1.546.67,6.574,6.574,0,0,0-1.244.974v20.884H262.36V1094.82h9.829l1.943,3.166a23.9,23.9,0,0,1,4.155-2.618,13.466,13.466,0,0,1,5.917-1.1,9.217,9.217,0,0,1,5.006,1.247,8.417,8.417,0,0,1,3,3.2q1.274-.972,2.912-2.008a18.706,18.706,0,0,1,3.55-1.736,11.159,11.159,0,0,1,3.853-.7,11.768,11.768,0,0,1,6.463,1.491,7.578,7.578,0,0,1,3.124,4.322,24.05,24.05,0,0,1,.85,6.851v20.7Zm-105.278,0-5.708-8.366-4.789,8.366H173.526l10.806-16.979-10.806-15.837h11.831l5.727,8.392,4.773-8.392h11.892l-10.771,17.029,10.771,15.788Zm166.642-16.922a6.526,6.526,0,0,1-1.823-.649l1.027-2.479a5.392,5.392,0,0,0,1.493.6,6.8,6.8,0,0,0,1.675.217,2.577,2.577,0,0,0,.9-.109.349.349,0,0,0,.257-.324c0-.143-.107-.244-.323-.3a8.5,8.5,0,0,0-1.054-.167,13.736,13.736,0,0,1-1.89-.342,2.96,2.96,0,0,1-1.369-.807,2.343,2.343,0,0,1-.588-1.714,2.539,2.539,0,0,1,.531-1.581,3.568,3.568,0,0,1,1.584-1.114,6.878,6.878,0,0,1,2.528-.417,10.619,10.619,0,0,1,2.015.192,6.135,6.135,0,0,1,1.683.557l-1.028,2.48a5.292,5.292,0,0,0-2.62-.666q-1.229,0-1.228.433c0,.145.112.247.331.308a7.624,7.624,0,0,0,1.046.174,12.679,12.679,0,0,1,1.882.351,3.029,3.029,0,0,1,1.361.814,2.346,2.346,0,0,1,.59,1.714,2.5,2.5,0,0,1-.532,1.548,3.578,3.578,0,0,1-1.592,1.114,7.055,7.055,0,0,1-2.57.417A10.557,10.557,0,0,1,362.559,1110.715Zm14.66.084-2.205-2.8-.6.649v2.147h-3.748V1098.45h3.748v5.891l2.6-2.645h4.429l-3.749,3.943,4.046,5.16Zm-21.326,0v-9.1h3.749v9.1Zm-5.291,0-1.973-2.93h-1.061v2.93h-3.915V1099.15h5.591a6.83,6.83,0,0,1,2.8.532,4.127,4.127,0,0,1,1.841,1.531,4.185,4.185,0,0,1,.647,2.33,4.123,4.123,0,0,1-.564,2.18,3.983,3.983,0,0,1-1.624,1.48l2.438,3.6Zm-3.034-5.891h1.426a1.737,1.737,0,0,0,1.193-.357,1.476,1.476,0,0,0,0-2.014,1.742,1.742,0,0,0-1.193-.357h-1.426Zm8.565-4.485a1.825,1.825,0,0,1,0-2.746,2.4,2.4,0,0,1,1.633-.541,2.47,2.47,0,0,1,1.642.516,1.661,1.661,0,0,1,.614,1.332,1.834,1.834,0,0,1-.614,1.422,2.345,2.345,0,0,1-1.642.558A2.4,2.4,0,0,1,356.133,1100.423Zm-144.378-9.742q-1.457,0-1.457-1.4v-6.757q0-1.523,1.457-1.523h9.221a1.2,1.2,0,0,1,1,.426,1.737,1.737,0,0,1,.333,1.1v6.757q0,1.4-1.336,1.4Z"/>
  </g>
</svg>
