<svg xmlns="http://www.w3.org/2000/svg" width="82.225" height="74.451" viewBox="0 0 82.225 74.451">
  <path id="Path_118" data-name="Path 118" d="M36.478,110.2,46.644,67.142H32.292L19.734,108.4c-2.99,8.671-3.887,12.259-3.887,17.043,0,8.97,6.279,16.146,15.847,16.146,8.671,0,15.548-6.578,15.548-16.146C47.242,117.972,43.056,112.291,36.478,110.2Zm50.83,0L97.474,67.142H83.122L70.564,108.4c-2.99,8.671-3.887,12.259-3.887,17.043,0,8.97,6.279,16.146,15.847,16.146,8.671,0,15.548-6.578,15.548-16.146C98.072,117.972,93.886,112.291,87.308,110.2Z" transform="translate(-15.847 -67.142)" fill="#00af43"/>
</svg>
